<svg width="20" height="20" viewBox="0 0 20 20" fill="none" xmlns="http://www.w3.org/2000/svg">
<path d="M4.31944 5.2037H17.088C17.3467 5.20371 17.6025 5.25794 17.839 5.36288C18.0755 5.46782 18.2874 5.62114 18.461 5.81298C18.6346 6.00481 18.7661 6.23089 18.8469 6.47665C18.9278 6.7224 18.9563 6.98238 18.9306 7.23982L18.375 12.7954C18.3293 13.2523 18.1155 13.676 17.775 13.9841C17.4345 14.2923 16.9916 14.4629 16.5324 14.463H7.68981C7.26155 14.4631 6.84646 14.3149 6.51522 14.0434C6.18399 13.7719 5.95709 13.394 5.87315 12.9741L4.31944 5.2037Z" stroke="#1E1E1E" stroke-width="2" stroke-linejoin="round"/>
<path d="M4.31944 5.2037L3.56944 2.20093C3.51928 2.0007 3.40366 1.82297 3.24093 1.69598C3.0782 1.56898 2.87771 1.50001 2.67129 1.5H1.54166M7.09722 18.1667H8.94907M14.5046 18.1667H16.3565" stroke="#1E1E1E" stroke-width="2" stroke-linecap="round" stroke-linejoin="round"/>
</svg>
