<svg width="25" height="24" viewBox="0 0 25 24" fill="none" xmlns="http://www.w3.org/2000/svg">
<path d="M10.1667 0H2.16666C1.81304 0 1.4739 0.140476 1.22385 0.390524C0.973804 0.640573 0.833328 0.979711 0.833328 1.33333V9.33333C0.833328 9.68696 0.973804 10.0261 1.22385 10.2761C1.4739 10.5262 1.81304 10.6667 2.16666 10.6667H10.1667C10.5203 10.6667 10.8594 10.5262 11.1095 10.2761C11.3595 10.0261 11.5 9.68696 11.5 9.33333V1.33333C11.5 0.979711 11.3595 0.640573 11.1095 0.390524C10.8594 0.140476 10.5203 0 10.1667 0ZM8.83333 8H3.49999V2.66667H8.83333V8ZM23.5 0H15.5C15.1464 0 14.8072 0.140476 14.5572 0.390524C14.3071 0.640573 14.1667 0.979711 14.1667 1.33333V9.33333C14.1667 9.68696 14.3071 10.0261 14.5572 10.2761C14.8072 10.5262 15.1464 10.6667 15.5 10.6667H23.5C23.8536 10.6667 24.1928 10.5262 24.4428 10.2761C24.6929 10.0261 24.8333 9.68696 24.8333 9.33333V1.33333C24.8333 0.979711 24.6929 0.640573 24.4428 0.390524C24.1928 0.140476 23.8536 0 23.5 0ZM22.1667 8H16.8333V2.66667H22.1667V8ZM10.1667 13.3333H2.16666C1.81304 13.3333 1.4739 13.4738 1.22385 13.7239C0.973804 13.9739 0.833328 14.313 0.833328 14.6667V22.6667C0.833328 23.0203 0.973804 23.3594 1.22385 23.6095C1.4739 23.8595 1.81304 24 2.16666 24H10.1667C10.5203 24 10.8594 23.8595 11.1095 23.6095C11.3595 23.3594 11.5 23.0203 11.5 22.6667V14.6667C11.5 14.313 11.3595 13.9739 11.1095 13.7239C10.8594 13.4738 10.5203 13.3333 10.1667 13.3333ZM8.83333 21.3333H3.49999V16H8.83333V21.3333ZM19.5 13.3333C16.5587 13.3333 14.1667 15.7253 14.1667 18.6667C14.1667 21.608 16.5587 24 19.5 24C22.4413 24 24.8333 21.608 24.8333 18.6667C24.8333 15.7253 22.4413 13.3333 19.5 13.3333ZM19.5 21.3333C18.0293 21.3333 16.8333 20.1373 16.8333 18.6667C16.8333 17.196 18.0293 16 19.5 16C20.9707 16 22.1667 17.196 22.1667 18.6667C22.1667 20.1373 20.9707 21.3333 19.5 21.3333Z" fill="#1E1E1E"/>
</svg>
