<svg width="23" height="24" viewBox="0 0 23 24" fill="none" xmlns="http://www.w3.org/2000/svg">
<path d="M11.5 0C10.2509 0 9.02976 0.370414 7.99113 1.0644C6.95251 1.75839 6.143 2.74478 5.66497 3.89884C5.18694 5.0529 5.06187 6.3228 5.30556 7.54794C5.54926 8.77308 6.15078 9.89845 7.03406 10.7817C7.91734 11.665 9.0427 12.2665 10.2678 12.5102C11.493 12.7539 12.7629 12.6288 13.9169 12.1508C15.071 11.6728 16.0574 10.8633 16.7514 9.82465C17.4454 8.78603 17.8158 7.56493 17.8158 6.31579C17.8158 4.64074 17.1504 3.03429 15.9659 1.84985C14.7815 0.665412 13.175 0 11.5 0ZM11.5 10.1053C10.7505 10.1053 10.0179 9.88301 9.39468 9.46662C8.7715 9.05023 8.2858 8.45839 7.99898 7.76596C7.71216 7.07352 7.63712 6.31159 7.78334 5.5765C7.92955 4.84141 8.29047 4.16619 8.82043 3.63623C9.3504 3.10626 10.0256 2.74535 10.7607 2.59913C11.4958 2.45291 12.2577 2.52796 12.9502 2.81477C13.6426 3.10159 14.2344 3.58729 14.6508 4.21047C15.0672 4.83365 15.2895 5.5663 15.2895 6.31579C15.2895 7.32082 14.8902 8.28469 14.1796 8.99535C13.4689 9.70602 12.505 10.1053 11.5 10.1053ZM22.8684 24V22.7368C22.8684 20.3918 21.9368 18.1427 20.2786 16.4845C18.6204 14.8263 16.3714 13.8947 14.0263 13.8947H8.97368C6.62861 13.8947 4.37959 14.8263 2.72137 16.4845C1.06315 18.1427 0.131577 20.3918 0.131577 22.7368V24H2.65789V22.7368C2.65789 21.0618 3.3233 19.4553 4.50774 18.2709C5.69218 17.0865 7.29863 16.4211 8.97368 16.4211H14.0263C15.7014 16.4211 17.3078 17.0865 18.4923 18.2709C19.6767 19.4553 20.3421 21.0618 20.3421 22.7368V24H22.8684Z" fill="#1E1E1E"/>
</svg>
